PathFileType	4	(X/Y/Z)	/Users/niels/Desktop/University/Third Semester/Perception and Action/Exam/Gymnastics Motion Tracking/Code for Gym Tracking/Analyzed Data/Webcam_Backflip/id8_3_baseline_Sports2D/id8_3_baseline_Sports2D_px_person00.trc
DataRate	CameraRate	NumFrames	NumMarkers	Units	OrigDataRate	OrigDataStartFrame	OrigNumFrames
29.8125	29.8125	7	22	m	29.8125	0	160
Frame#	Time	Hip			RHip			RKnee			RAnkle			RBigToe			RSmallToe			RHeel			LHip			LKnee			LAnkle			LBigToe			LSmallToe			LHeel			Neck			Head			Nose			RShoulder			RElbow			RWrist			LShoulder			LElbow			LWrist		
		X1	Y1	Z1	X2	Y2	Z2	X3	Y3	Z3	X4	Y4	Z4	X5	Y5	Z5	X6	Y6	Z6	X7	Y7	Z7	X8	Y8	Z8	X9	Y9	Z9	X10	Y10	Z10	X11	Y11	Z11	X12	Y12	Z12	X13	Y13	Z13	X14	Y14	Z14	X15	Y15	Z15	X16	Y16	Z16	X17	Y17	Z17	X18	Y18	Z18	X19	Y19	Z19	X20	Y20	Z20	X21	Y21	Z21	X22	Y22	Z22
0	0.0	1.0066763880503742	-0.5799023308533702	0.0	1.0101580273112418	-0.5816387453219051	0.0	0.9944901934569158	-0.6826935841220774	0.0	0.9753367946353071	-0.7767695828401584	0.0	0.9997249548239772	-0.7924405746017863	0.0	0.9892714980853875	-0.7976736190551931	0.0	0.9666234134490231	-0.7907009502593052	0.0	0.9979592044547287	-0.5781531148847959	0.0	0.9910059092653916	-0.6757251095123873	0.0	0.9753392560593259	-0.7680515990375898	0.0	1.004957829842221	-0.7837304730960039	0.0	0.9945059377534029	-0.7784939556291472	0.0	0.9666204678515198	-0.7785075388186898	0.0	0.999728293086071	-0.456204510901265	0.0	1.0032168494022828	-0.3952341666693976	0.0	1.0171575966889759	-0.42137426441408027	0.0	0.9979846433982166	-0.4579489025544151	0.0	1.006742915750084	-0.3848135127525516	0.0	0.9980877851537971	-0.33085067977446775	0.0	0.9910054880227703	-0.4579534103342483	0.0	1.0049899810513108	-0.39526945378283446	0.0	0.9945999974516962	-0.34304176890009497	0.0
1	0.03354297693920335	1.007146478251867	-0.5785931713348441	0.0	1.0104911723203298	-0.5802921394669758	0.0	0.9944696211596774	-0.6828437976178757	0.0	0.9753723361142987	-0.7772445704610352	0.0	1.0005875389235313	-0.792784241347579	0.0	0.9906026757456261	-0.7983843269403453	0.0	0.966645200067469	-0.7908392733250469	0.0	0.9998940117447397	-0.5773825510115748	0.0	0.9911382962705776	-0.6769844416351743	0.0	0.9755023139535868	-0.7695364203996521	0.0	1.0046642690340342	-0.7858846790412158	0.0	0.9937210004965309	-0.7816582026342864	0.0	0.9662133259188234	-0.7799473047798515	0.0	1.0006205114046247	-0.45516792174223436	0.0	1.0035350628160882	-0.3965047175649221	0.0	1.0173891447031285	-0.4208717533747594	0.0	0.9984403035310975	-0.4582281553625268	0.0	1.006238713823936	-0.3861724749545071	0.0	0.9969848896566887	-0.3308361292649748	0.0	0.9924786825131297	-0.4583064050572683	0.0	1.0047145736156269	-0.39499165815614246	0.0	0.9932042027236125	-0.342147485042361	0.0
2	0.0670859538784067	1.007594070013871	-0.5776037510923184	0.0	1.0107643487608395	-0.5792558772407341	0.0	0.9944701278445112	-0.6829410755897816	0.0	0.9754613560704655	-0.7777566926943748	0.0	1.001292706783754	-0.7932713060980052	0.0	0.9917910085003654	-0.7990925339845547	0.0	0.966718478950133	-0.7910105409814984	0.0	1.0015764395197053	-0.5768530231036769	0.0	0.9912694973760635	-0.677991784609223	0.0	0.9756303898752502	-0.7709810159970965	0.0	1.0045904139925768	-0.787945608394132	0.0	0.9932696474679361	-0.7843821396331503	0.0	0.9658300206376511	-0.7811921248689309	0.0	1.001428299421367	-0.4542074703431594	0.0	1.0037528174949453	-0.3976683923794763	0.0	1.017738663222069	-0.4203246412950163	0.0	0.9989347261386564	-0.4583745323902205	0.0	1.0059412792967382	-0.38707471985628744	0.0	0.9961906964677	-0.33044125549859454	0.0	0.993883969216281	-0.45852482950255374	0.0	1.0047284325127563	-0.39459833113572595	0.0	0.9921919549234818	-0.3411488345568728	0.0
3	0.10062893081761004	1.007963367742418	-0.5770903222320578	0.0	1.010893534323817	-0.5787028513073502	0.0	0.9944721585803047	-0.6829570291566781	0.0	0.9756232993742754	-0.7782665869196987	0.0	1.0018699277555232	-0.7938852794016634	0.0	0.9928223526525304	-0.7997508638715173	0.0	0.9668662261197976	-0.7912089620141859	0.0	1.0028700135887676	-0.5766690308651726	0.0	0.9914091347813461	-0.6786341511907793	0.0	0.9757144625913147	-0.7722783963165486	0.0	1.0048284712232998	-0.7897655747045047	0.0	0.9933336248578812	-0.7863983642191626	0.0	0.965529768423453	-0.7820930350731091	0.0	1.0021487528726165	-0.4533926531461084	0.0	1.0038920866354053	-0.3985833523300479	0.0	1.0182280355272633	-0.4197032477726865	0.0	0.9994867706135733	-0.45824401910414736	0.0	1.0060505637697474	-0.38724325149679534	0.0	0.9961713571499001	-0.32945286801054036	0.0	0.9952501034105505	-0.45850103343167753	0.0	1.0052591527588868	-0.39400193103438524	0.0	0.9920371381935489	-0.3399546554433884	0.0
4	0.1341719077568134	1.0081847713309984	-0.5770721584030297	0.0	1.010762650759583	-0.5786452069911993	0.0	0.9944172565383709	-0.6828986332589736	0.0	0.9758194487793904	-0.7786776921611777	0.0	1.0024939732715283	-0.7944819032804405	0.0	0.9937857842781321	-0.8002816413251619	0.0	0.9670653084544576	-0.7913829854706412	0.0	1.0037761167311148	-0.5768085995472827	0.0	0.991594096358974	-0.67898577411633	0.0	0.9757820450728164	-0.7732860851583149	0.0	1.0053787134290744	-0.7911806237579785	0.0	0.9939731486922198	-0.7876524241966868	0.0	0.9653855595284632	-0.7825750051427035	0.0	1.00283951464148	-0.452764271570683	0.0	1.0040053253464831	-0.39918150262543495	0.0	1.0187585726391888	-0.4190355919988763	0.0	1.0001061980872363	-0.457788743456739	0.0	1.0067339287707953	-0.3866825828514712	0.0	0.9974609456705481	-0.327914413850424	0.0	0.9966547287018014	-0.4582313242427643	0.0	1.006419215868482	-0.39318888605803104	0.0	0.993214303372419	-0.338470773846354	0.0
5	0.16771488469601675	1.0081772318464164	-0.5774436204022343	0.0	1.0102356115392472	-0.5789355421852422	0.0	0.994248717306194	-0.6827401731083885	0.0	0.9759738888131797	-0.7788887146709587	0.0	1.00331164697491	-0.7949116413844585	0.0	0.9947960025434014	-0.8005927338483861	0.0	0.9672644394542711	-0.7914492372180795	0.0	1.0043607059448394	-0.5771381521574771	0.0	0.9918567926852372	-0.6791600655189549	0.0	0.975868620215313	-0.7738753649406116	0.0	1.0062056643697537	-0.792092817151469	0.0	0.9951647983208256	-0.7882435890570699	0.0	0.9654378241838756	-0.7826206938489716	0.0	1.0035262916561865	-0.45226232355309265	0.0	1.0040149826415876	-0.3994960743050312	0.0	1.0191957443106572	-0.4183437952747573	0.0	1.0008103653188822	-0.4571043904228134	0.0	1.0082104905557192	-0.38567370475723134	0.0	1.0006550034804471	-0.326121404829856	0.0	0.9981279192501632	-0.45776419012301417	0.0	1.0082970801596918	-0.392219853048861	0.0	0.9962386624777149	-0.3366486346242552	0.0
6	0.20125786163522008	1.0078454410899704	-0.5779579684301547	0.0	1.0092421017907842	-0.5793006318646617	0.0	0.9939643739540766	-0.6823699365254209	0.0	0.9760469527382137	-0.7788112371701554	0.0	1.004402264082498	-0.7950976400487656	0.0	0.9960050173925769	-0.8005897167690067	0.0	0.9674484784548367	-0.7913412489831044	0.0	1.0046717624122328	-0.5774280654615278	0.0	0.9921874844841789	-0.6791497989852051	0.0	0.9759887732598921	-0.7739769364527886	0.0	1.0072285462827946	-0.7925310084331602	0.0	0.996786467396943	-0.7883597557022344	0.0	0.9656756071325096	-0.7822717093543933	0.0	1.0041617721502867	-0.451721164301942	0.0	1.0038636374072358	-0.3994668716100751	0.0	1.0194977700923578	-0.4175754400089399	0.0	1.0015939361970183	-0.45634583397339445	0.0	1.0107743840033605	-0.38463976072182376	0.0	1.0063255122611112	-0.32449997082103715	0.0	0.9995945989062142	-0.4570880629775601	0.0	1.0110419108455946	-0.3911838243702197	0.0	1.0016629215064596	-0.334565281554186	0.0
